<svg id="svg" version="1.1" xmlns="http://www.w3.org/2000/svg" xmlns:xlink="http://www.w3.org/1999/xlink" width="400" height="43.160813308687615" viewBox="0, 0, 400,43.160813308687615"><g id="svgg"><path id="path0" d="M129.667 16.833 L 129.667 33.667 133.500 33.667 L 137.333 33.667 137.333 25.098 L 137.333 16.530 137.841 16.103 C 138.859 15.246,141.505 15.066,142.474 15.788 C 143.609 16.634,143.578 16.380,143.632 25.458 L 143.681 33.667 147.424 33.667 L 151.167 33.667 151.167 25.160 C 151.167 15.791,151.113 15.146,150.162 13.185 C 148.903 10.585,147.027 9.583,143.417 9.583 L 140.917 9.583 139.861 10.134 C 139.280 10.438,138.474 10.991,138.069 11.364 L 137.333 12.042 137.333 6.021 L 137.333 0.000 133.500 0.000 L 129.667 0.000 129.667 16.833 M8.750 0.734 C 8.658 0.768,8.152 0.891,7.625 1.008 C 7.098 1.124,6.667 1.283,6.667 1.360 C 6.667 1.437,6.556 1.500,6.422 1.500 C 5.223 1.500,2.607 3.929,1.395 6.167 C -0.432 9.541,-0.533 16.992,1.203 20.402 C 3.698 25.307,9.522 27.613,14.625 25.718 C 15.449 25.412,15.432 25.514,14.992 23.488 C 14.804 22.624,14.572 21.504,14.476 21.000 C 14.239 19.758,14.205 19.731,13.606 20.310 C 12.200 21.671,9.906 21.703,8.254 20.385 C 7.931 20.127,7.667 19.853,7.667 19.776 C 7.667 19.698,7.527 19.436,7.356 19.192 C 6.126 17.438,5.833 11.490,6.840 8.711 C 8.447 4.273,14.070 4.627,15.107 9.230 C 15.839 12.481,15.480 17.614,14.403 19.287 L 14.165 19.658 16.786 19.704 L 19.406 19.750 19.551 20.500 C 20.145 23.577,22.185 16.502,21.906 12.333 C 21.508 6.402,18.924 2.614,14.167 0.992 C 13.628 0.808,9.128 0.594,8.750 0.734 M54.833 1.520 C 47.780 2.949,43.992 8.628,44.008 17.750 C 44.025 28.082,49.129 34.000,58.021 34.000 C 64.225 34.000,68.296 31.204,70.881 25.167 C 72.054 22.426,72.349 15.625,71.448 12.083 C 69.432 4.160,62.754 -0.085,54.833 1.520 M117.500 6.914 L 117.500 9.828 112.900 9.872 L 108.300 9.917 108.066 10.607 C 107.754 11.532,107.018 14.031,106.725 15.167 C 106.594 15.671,106.420 16.233,106.336 16.417 C 106.253 16.600,106.026 17.313,105.832 18.000 C 105.637 18.688,105.290 19.887,105.059 20.667 C 104.828 21.446,104.596 22.270,104.543 22.498 C 104.426 22.997,104.374 22.833,102.599 16.375 C 102.379 15.573,101.872 13.773,101.474 12.376 L 100.750 9.836 93.720 9.834 L 86.690 9.833 86.032 11.042 C 85.670 11.706,84.977 13.000,84.493 13.917 C 84.009 14.833,83.534 15.712,83.437 15.869 C 83.291 16.106,83.077 15.793,82.183 14.035 C 81.590 12.870,80.875 11.467,80.594 10.917 L 80.083 9.917 76.125 9.872 C 73.509 9.842,72.167 9.885,72.167 9.998 C 72.167 10.092,72.679 11.087,73.306 12.209 C 73.932 13.332,74.901 15.112,75.459 16.167 C 76.016 17.221,76.886 18.828,77.392 19.738 C 78.286 21.347,78.305 21.406,78.060 21.879 C 77.921 22.147,77.288 23.305,76.654 24.452 C 76.019 25.598,75.500 26.566,75.500 26.601 C 75.500 26.636,74.675 28.156,73.667 29.978 C 72.658 31.800,71.833 33.377,71.833 33.482 C 71.833 33.621,72.899 33.661,75.781 33.628 L 79.729 33.583 80.323 32.416 C 82.745 27.651,83.222 26.838,83.424 27.129 C 83.533 27.287,84.134 28.390,84.759 29.579 C 85.384 30.768,86.128 32.156,86.413 32.662 L 86.931 33.583 90.882 33.628 C 93.055 33.653,94.833 33.637,94.833 33.593 C 94.833 33.549,94.308 32.565,93.667 31.405 C 93.025 30.245,92.500 29.261,92.500 29.217 C 92.500 29.173,91.909 28.076,91.187 26.777 C 90.466 25.479,89.520 23.745,89.087 22.925 L 88.299 21.433 88.858 20.378 C 89.165 19.797,89.604 18.968,89.833 18.534 C 90.361 17.535,91.477 15.508,92.547 13.604 L 93.379 12.124 93.577 12.604 C 93.686 12.867,94.093 14.021,94.482 15.167 C 94.870 16.313,95.251 17.400,95.327 17.583 C 95.526 18.064,97.285 23.173,97.422 23.667 C 97.485 23.896,97.634 24.308,97.753 24.583 C 97.871 24.858,98.280 26.021,98.660 27.167 C 99.041 28.313,99.419 29.400,99.500 29.583 C 100.065 30.859,100.856 33.593,100.777 33.992 C 100.357 36.089,99.335 36.995,97.241 37.126 L 95.833 37.214 95.833 39.937 L 95.833 42.660 96.292 42.788 C 96.544 42.859,97.804 42.917,99.092 42.917 L 101.435 42.917 102.702 42.290 C 103.577 41.858,104.224 41.385,104.791 40.765 C 106.070 39.365,105.814 40.005,111.024 25.167 C 112.037 22.279,113.243 18.848,113.704 17.542 L 114.541 15.167 116.020 15.167 L 117.500 15.167 117.503 21.292 C 117.508 29.594,117.736 30.823,119.570 32.434 C 121.237 33.898,124.969 34.460,128.125 33.722 L 129.333 33.439 129.333 30.761 L 129.333 28.083 127.671 28.083 C 125.066 28.083,125.260 28.622,125.202 21.246 L 125.155 15.167 127.077 15.167 L 129.000 15.167 129.000 12.500 L 129.000 9.833 127.083 9.833 L 125.167 9.833 125.167 6.917 L 125.167 4.000 121.333 4.000 L 117.500 4.000 117.500 6.914 M59.478 7.592 C 62.761 8.735,63.922 11.404,63.899 17.750 C 63.885 21.565,63.705 22.819,62.924 24.522 C 60.878 28.984,55.387 29.207,53.192 24.917 C 51.521 21.651,51.476 13.699,53.110 10.452 C 54.362 7.966,57.066 6.752,59.478 7.592 M160.917 9.740 C 157.626 10.576,155.420 12.361,153.873 15.436 C 152.264 18.638,152.269 24.375,153.884 27.917 C 156.944 34.623,168.295 36.221,173.632 30.698 C 174.501 29.798,174.586 30.045,172.583 27.666 L 170.927 25.700 170.071 26.475 C 166.787 29.447,161.624 28.412,160.427 24.542 L 160.311 24.167 167.680 24.167 L 175.049 24.167 174.952 21.458 C 174.725 15.160,172.888 11.871,168.667 10.204 C 166.828 9.478,162.879 9.242,160.917 9.740 M187.417 9.726 C 186.262 10.106,185.098 10.777,184.215 11.571 L 183.362 12.338 183.245 11.086 L 183.128 9.833 179.564 9.833 L 176.000 9.833 176.000 21.750 L 176.000 33.667 179.833 33.667 L 183.667 33.667 183.667 25.346 L 183.667 17.026 184.118 16.489 C 185.441 14.917,188.344 14.923,189.118 16.500 C 189.482 17.242,189.486 17.336,189.493 25.461 L 189.500 33.673 193.292 33.628 L 197.083 33.583 197.167 25.222 L 197.250 16.860 197.667 16.408 C 199.007 14.954,201.834 14.987,202.598 16.465 C 202.897 17.046,202.920 17.587,202.966 25.375 L 203.015 33.667 206.757 33.667 L 210.500 33.667 210.500 25.098 C 210.500 15.808,210.437 14.973,209.593 13.145 C 208.368 10.490,206.713 9.583,203.087 9.583 L 200.583 9.583 199.333 10.185 C 198.017 10.819,196.590 11.954,196.415 12.506 C 196.274 12.950,196.057 12.918,195.936 12.436 C 195.401 10.304,190.445 8.728,187.417 9.726 M166.028 15.778 C 166.848 16.257,167.445 17.252,167.585 18.375 L 167.705 19.333 164.006 19.333 L 160.307 19.333 160.424 18.798 C 161.069 15.863,163.724 14.432,166.028 15.778 " stroke="none" fill="#2c8b14" fill-rule="evenodd"></path><path id="path1" d="M297.167 16.833 L 297.167 33.667 301.000 33.667 L 304.833 33.667 304.833 30.219 L 304.833 26.771 305.819 25.821 C 306.597 25.071,306.825 24.929,306.900 25.144 C 306.952 25.294,307.408 26.092,307.912 26.917 C 308.417 27.742,309.037 28.783,309.290 29.231 C 309.543 29.680,309.825 30.170,309.917 30.321 C 310.008 30.473,310.490 31.287,310.986 32.131 L 311.890 33.667 316.195 33.667 C 318.563 33.667,320.500 33.624,320.500 33.572 C 320.500 33.519,320.275 33.150,320.000 32.750 C 319.725 32.350,319.500 31.982,319.500 31.931 C 319.500 31.880,319.025 31.106,318.443 30.211 C 316.598 27.368,315.905 26.286,314.998 24.833 C 314.512 24.054,313.564 22.572,312.891 21.540 L 311.668 19.663 313.275 17.790 C 314.159 16.760,315.105 15.665,315.377 15.358 C 316.964 13.568,319.833 10.105,319.833 9.980 C 319.833 9.899,317.842 9.836,315.375 9.839 L 310.917 9.844 307.917 13.572 L 304.917 17.301 304.874 8.650 L 304.830 0.000 300.999 0.000 L 297.167 0.000 297.167 16.833 M220.504 1.792 C 220.506 1.860,220.581 2.217,220.671 2.583 C 220.760 2.950,221.020 4.150,221.248 5.250 C 221.476 6.350,221.859 8.150,222.099 9.250 C 222.339 10.350,222.709 12.075,222.921 13.083 C 223.302 14.900,223.780 17.136,224.578 20.833 C 224.806 21.887,225.180 23.650,225.411 24.750 C 225.641 25.850,226.020 27.613,226.252 28.667 C 226.484 29.721,226.801 31.229,226.956 32.019 L 227.238 33.454 228.828 33.560 C 229.702 33.618,231.545 33.665,232.923 33.666 L 235.429 33.667 235.716 32.375 C 235.873 31.665,236.188 30.296,236.414 29.333 C 236.641 28.371,237.014 26.758,237.243 25.750 C 237.472 24.742,237.851 23.092,238.085 22.083 C 238.319 21.075,238.693 19.420,238.915 18.406 C 239.571 15.417,239.377 15.133,240.743 21.083 C 240.974 22.092,241.343 23.667,241.563 24.583 C 242.253 27.465,242.815 29.864,243.165 31.417 C 243.350 32.242,243.541 33.085,243.588 33.292 L 243.673 33.667 247.734 33.667 L 251.796 33.667 252.150 32.125 C 252.345 31.277,252.610 30.058,252.740 29.417 C 252.869 28.775,253.175 27.313,253.421 26.167 C 253.667 25.021,254.051 23.221,254.275 22.167 C 254.499 21.112,254.859 19.425,255.075 18.417 C 255.290 17.408,255.665 15.646,255.908 14.500 C 256.151 13.354,256.525 11.592,256.739 10.583 C 256.952 9.575,257.333 7.813,257.584 6.667 C 257.835 5.521,258.168 3.946,258.324 3.167 L 258.608 1.750 254.779 1.705 C 252.674 1.681,250.919 1.692,250.881 1.730 C 250.774 1.837,250.374 3.816,249.915 6.500 C 249.688 7.829,249.321 9.892,249.099 11.083 C 248.169 16.090,247.786 18.170,247.525 19.646 L 247.248 21.209 246.945 19.813 C 246.778 19.045,246.499 17.817,246.323 17.083 C 246.148 16.350,245.854 15.037,245.671 14.167 C 245.487 13.296,245.142 11.721,244.904 10.667 C 243.868 6.084,243.625 4.988,243.289 3.375 L 242.932 1.667 239.569 1.667 C 236.219 1.667,236.205 1.668,236.114 2.042 C 236.064 2.248,235.834 3.279,235.602 4.333 C 235.370 5.388,234.998 7.075,234.774 8.083 C 234.551 9.092,234.165 10.854,233.917 12.000 C 233.484 13.998,233.138 15.577,232.319 19.291 C 232.112 20.230,231.915 20.970,231.881 20.937 C 231.847 20.903,231.629 19.797,231.395 18.479 C 231.161 17.162,230.796 15.146,230.583 14.000 C 230.194 11.903,229.470 7.884,228.842 4.333 C 228.656 3.279,228.464 2.248,228.415 2.042 L 228.327 1.667 224.413 1.667 C 222.261 1.667,220.502 1.723,220.504 1.792 M368.000 6.917 L 368.000 9.833 366.500 9.833 L 365.000 9.833 365.000 12.500 L 365.000 15.167 366.500 15.167 L 368.000 15.167 368.000 21.752 C 368.000 30.844,368.544 32.476,371.917 33.506 C 372.283 33.618,372.756 33.775,372.966 33.855 C 373.646 34.113,377.293 34.023,378.613 33.716 L 379.833 33.432 379.839 31.341 L 379.844 29.250 380.200 29.750 C 384.390 35.641,396.292 35.460,399.456 29.457 C 400.139 28.161,400.140 25.222,399.458 23.807 C 398.344 21.494,395.964 20.102,391.667 19.250 C 388.398 18.602,387.000 17.828,387.000 16.667 C 387.000 13.829,392.001 13.752,392.425 16.584 L 392.538 17.333 396.291 17.333 L 400.045 17.333 399.963 16.208 C 399.621 11.468,393.421 8.445,386.572 9.678 C 379.968 10.868,377.461 18.339,382.434 22.013 C 383.862 23.068,385.488 23.697,388.917 24.519 C 392.404 25.356,393.543 26.600,392.239 28.149 C 390.615 30.079,386.167 28.692,386.167 26.255 L 386.167 25.833 382.566 25.833 L 378.965 25.833 379.056 26.458 C 379.107 26.802,379.199 27.335,379.262 27.643 L 379.376 28.203 377.942 28.143 C 376.636 28.089,376.466 28.042,376.045 27.621 L 375.583 27.159 375.534 21.163 L 375.484 15.167 377.492 15.167 L 379.500 15.167 379.500 12.500 L 379.500 9.833 377.500 9.833 L 375.500 9.833 375.500 6.917 L 375.500 4.000 371.750 4.000 L 368.000 4.000 368.000 6.917 M266.083 9.683 C 256.193 11.612,254.472 28.558,263.725 32.910 C 266.984 34.443,271.691 34.402,274.969 32.812 C 282.372 29.222,282.774 15.373,275.601 11.026 C 273.409 9.697,269.118 9.092,266.083 9.683 M292.562 9.702 C 291.760 9.960,290.474 11.007,289.890 11.876 L 289.363 12.660 289.245 11.247 L 289.127 9.833 285.563 9.833 L 281.998 9.833 282.041 21.708 L 282.083 33.583 285.875 33.628 L 289.667 33.673 289.673 26.128 C 289.679 18.010,289.657 18.222,290.583 17.468 C 291.504 16.719,292.099 16.582,294.350 16.602 L 296.451 16.620 296.559 14.367 C 296.737 10.654,296.706 9.717,296.403 9.601 C 295.987 9.442,293.138 9.516,292.562 9.702 M327.132 9.759 C 323.701 10.590,321.433 12.671,319.784 16.500 C 318.570 19.319,318.861 25.278,320.360 28.305 C 324.194 36.043,336.809 36.037,340.644 28.296 C 342.109 25.338,342.431 18.059,341.169 16.417 C 341.098 16.325,340.987 16.063,340.921 15.833 C 339.611 11.284,332.948 8.348,327.132 9.759 M343.168 18.208 C 343.169 27.036,343.223 27.845,343.939 29.735 C 345.745 34.499,352.858 35.614,356.958 31.775 L 357.500 31.268 357.502 32.092 C 357.507 33.790,357.218 33.667,361.186 33.667 L 364.667 33.667 364.667 21.750 L 364.667 9.833 360.833 9.833 L 357.000 9.833 356.996 18.208 C 356.992 27.619,357.081 26.966,355.711 27.669 C 354.257 28.415,352.321 28.277,351.446 27.364 C 350.738 26.625,350.667 25.723,350.667 17.477 L 350.667 9.833 346.917 9.833 L 343.167 9.833 343.168 18.208 M270.781 15.658 C 273.778 17.018,274.089 25.581,271.214 27.569 C 269.312 28.885,266.755 28.003,265.810 25.705 C 265.222 24.278,265.218 19.430,265.803 17.917 C 266.664 15.690,268.759 14.740,270.781 15.658 M331.708 15.509 C 333.388 15.975,334.481 18.405,334.494 21.702 C 334.511 25.904,333.151 28.083,330.512 28.083 C 327.881 28.083,326.749 26.441,326.547 22.330 C 326.297 17.258,328.330 14.571,331.708 15.509 M14.000 19.675 C 14.000 19.725,14.067 19.838,14.148 19.925 C 14.329 20.119,14.927 22.989,15.483 26.333 C 15.582 26.929,15.848 28.279,16.073 29.333 C 16.299 30.387,16.674 32.150,16.906 33.250 C 17.139 34.350,17.519 36.112,17.751 37.167 C 17.982 38.221,18.293 39.704,18.441 40.462 L 18.711 41.841 21.635 41.795 L 24.558 41.750 24.779 40.833 C 24.900 40.329,25.184 39.092,25.410 38.083 C 25.637 37.075,26.014 35.425,26.249 34.417 C 26.484 33.408,26.815 31.983,26.984 31.250 C 27.331 29.749,27.437 29.811,27.828 31.750 C 27.939 32.300,28.171 33.313,28.343 34.000 C 28.516 34.688,28.884 36.225,29.162 37.417 C 29.440 38.608,29.795 40.091,29.950 40.712 L 30.233 41.841 33.156 41.795 L 36.079 41.750 36.441 39.917 C 36.641 38.908,36.990 37.221,37.218 36.167 C 37.445 35.112,37.823 33.350,38.058 32.250 C 38.292 31.150,38.718 29.162,39.005 27.833 C 39.291 26.504,39.711 24.517,39.938 23.417 C 40.165 22.317,40.418 21.117,40.501 20.750 C 40.804 19.410,40.990 19.500,37.917 19.500 C 36.404 19.500,35.165 19.519,35.163 19.542 C 35.156 19.626,34.313 24.315,33.897 26.583 C 33.662 27.867,33.302 29.854,33.097 31.000 L 32.724 33.083 32.513 32.083 C 32.267 30.920,31.977 29.605,31.426 27.167 C 30.905 24.854,30.187 21.641,29.937 20.500 L 29.736 19.583 27.334 19.583 L 24.931 19.583 24.567 21.333 C 23.993 24.091,23.494 26.359,22.256 31.833 C 22.005 32.944,21.895 32.596,21.173 28.417 C 20.469 24.336,19.981 21.771,19.878 21.605 C 19.818 21.508,19.685 21.051,19.581 20.589 L 19.392 19.750 16.696 19.667 C 15.213 19.621,14.000 19.625,14.000 19.675 " stroke="none" fill="#444444" fill-rule="evenodd"></path></g></svg>