<svg id="svg" version="1.1" xmlns="http://www.w3.org/2000/svg" xmlns:xlink="http://www.w3.org/1999/xlink" width="400" height="400" viewBox="0, 0, 400,400"><g id="svgg"><path id="path0" d="M140.400 185.400 C 140.400 186.104,140.618 186.400,141.136 186.400 C 142.001 186.400,142.800 187.947,142.800 189.624 C 142.800 190.277,142.972 191.123,143.182 191.505 C 143.541 192.159,144.201 195.259,144.650 198.400 C 144.760 199.170,145.011 200.160,145.207 200.600 C 145.544 201.354,146.174 204.616,146.674 208.200 C 146.797 209.080,147.031 209.890,147.195 210.000 C 147.467 210.183,148.115 213.436,148.667 217.400 C 148.790 218.280,149.030 219.180,149.200 219.400 C 149.371 219.620,149.639 220.925,149.795 222.301 C 149.951 223.676,150.241 224.902,150.439 225.024 C 150.638 225.147,150.800 225.869,150.800 226.629 C 150.800 227.389,150.962 228.323,151.161 228.705 C 152.244 230.788,153.098 238.800,152.237 238.800 C 151.887 238.800,151.600 238.980,151.600 239.200 C 151.600 239.420,151.780 239.600,152.000 239.600 C 152.220 239.600,152.400 240.320,152.400 241.200 C 152.400 242.080,152.554 242.800,152.742 242.800 C 152.930 242.800,153.196 243.991,153.331 245.446 C 153.467 246.901,153.808 248.376,154.089 248.723 C 154.517 249.252,154.503 249.299,154.000 249.018 C 153.512 248.745,153.493 248.783,153.900 249.221 C 154.175 249.518,154.400 250.264,154.400 250.880 C 154.400 251.496,154.554 252.000,154.743 252.000 C 155.016 252.000,155.555 255.527,155.706 258.300 C 155.721 258.575,155.883 258.800,156.067 258.800 C 156.250 258.800,156.400 259.430,156.400 260.200 C 156.400 260.970,156.561 261.600,156.758 261.600 C 156.955 261.600,157.244 263.041,157.400 264.802 C 157.556 266.563,157.845 268.104,158.042 268.226 C 158.239 268.348,158.400 268.966,158.400 269.600 C 158.400 270.234,158.562 270.853,158.759 270.975 C 159.089 271.179,159.857 276.572,159.664 277.330 C 159.618 277.511,159.765 277.545,159.990 277.406 C 160.244 277.249,160.400 277.770,160.400 278.776 C 160.400 279.669,160.568 280.400,160.773 280.400 C 160.977 280.400,161.271 281.840,161.424 283.600 C 161.578 285.360,161.860 286.800,162.052 286.800 C 162.243 286.800,162.400 287.509,162.400 288.376 C 162.400 289.243,162.566 290.055,162.769 290.181 C 163.110 290.392,163.865 295.387,163.668 296.130 C 163.620 296.311,163.765 296.345,163.990 296.206 C 164.247 296.047,164.400 296.633,164.400 297.776 C 164.400 298.779,164.565 299.600,164.766 299.600 C 164.967 299.600,165.258 300.948,165.412 302.595 C 165.567 304.242,165.852 305.491,166.047 305.371 C 166.241 305.251,166.400 305.973,166.400 306.976 C 166.400 307.979,166.557 308.800,166.748 308.800 C 166.940 308.800,167.223 309.916,167.377 311.280 C 167.532 312.645,167.807 314.040,167.990 314.381 C 168.172 314.722,168.378 315.721,168.446 316.600 C 168.515 317.480,168.708 318.298,168.875 318.417 C 169.042 318.537,169.300 319.932,169.447 321.517 C 169.594 323.103,169.869 324.400,170.057 324.400 C 170.246 324.400,170.400 325.120,170.400 326.000 C 170.400 326.880,170.557 327.600,170.748 327.600 C 170.940 327.600,171.220 328.856,171.372 330.391 C 171.523 331.926,171.816 333.286,172.023 333.414 C 172.230 333.542,172.400 334.256,172.400 335.000 C 172.400 335.744,172.559 336.451,172.752 336.571 C 172.946 336.690,173.232 338.141,173.387 339.794 C 173.542 341.447,173.833 342.800,174.034 342.800 C 174.235 342.800,174.400 343.621,174.400 344.624 C 174.400 345.627,174.554 346.352,174.743 346.235 C 175.019 346.065,175.456 348.655,175.697 351.882 C 175.717 352.148,175.883 352.272,176.067 352.159 C 176.250 352.045,176.400 352.653,176.400 353.510 C 176.400 354.366,176.535 355.200,176.700 355.363 C 176.966 355.625,177.605 358.876,178.262 363.300 C 178.384 364.125,178.619 364.800,178.785 364.800 C 178.950 364.800,179.206 366.097,179.353 367.683 C 179.500 369.268,179.752 370.663,179.912 370.783 C 180.072 370.902,180.255 371.540,180.319 372.200 C 180.382 372.860,180.595 373.760,180.791 374.200 C 181.107 374.911,181.585 377.473,182.264 382.100 C 182.385 382.925,182.626 383.600,182.800 383.600 C 182.974 383.600,183.244 385.041,183.400 386.802 C 183.556 388.563,183.845 390.104,184.042 390.226 C 184.239 390.348,184.400 390.887,184.400 391.424 L 184.400 392.400 211.000 392.400 C 237.333 392.400,237.600 392.392,237.600 391.600 C 237.600 391.160,237.765 390.800,237.966 390.800 C 238.167 390.800,238.458 389.447,238.613 387.794 C 238.768 386.141,239.054 384.690,239.248 384.571 C 239.441 384.451,239.600 383.949,239.600 383.456 C 239.600 382.963,239.764 382.389,239.965 382.180 C 240.166 381.971,240.451 380.630,240.600 379.200 C 240.749 377.770,241.034 376.429,241.235 376.220 C 241.436 376.011,241.600 375.336,241.600 374.720 C 241.600 374.104,241.750 373.600,241.933 373.600 C 242.117 373.600,242.275 373.375,242.284 373.100 C 242.352 371.166,242.952 367.777,243.245 367.667 C 243.440 367.593,243.600 366.918,243.600 366.167 C 243.600 365.415,243.765 364.800,243.966 364.800 C 244.167 364.800,244.458 363.450,244.613 361.800 C 244.767 360.150,245.053 358.800,245.247 358.800 C 245.441 358.800,245.600 358.296,245.600 357.680 C 245.600 357.064,245.825 356.318,246.100 356.021 C 246.507 355.583,246.488 355.545,246.000 355.818 C 245.518 356.088,245.491 356.040,245.861 355.577 C 246.115 355.260,246.451 353.965,246.608 352.700 C 246.764 351.435,247.051 350.400,247.246 350.400 C 247.441 350.400,247.600 349.669,247.600 348.776 C 247.600 347.883,247.759 347.251,247.953 347.371 C 248.148 347.491,248.433 346.243,248.587 344.598 C 248.742 342.952,249.033 341.504,249.234 341.379 C 249.435 341.255,249.600 340.623,249.600 339.976 C 249.600 339.329,249.759 338.800,249.953 338.800 C 250.147 338.800,250.433 337.450,250.587 335.800 C 250.742 334.150,251.033 332.800,251.234 332.800 C 251.435 332.800,251.600 332.271,251.600 331.624 C 251.600 330.977,251.762 330.347,251.959 330.225 C 252.157 330.103,252.445 328.742,252.600 327.202 C 252.755 325.661,253.043 324.400,253.241 324.400 C 253.438 324.400,253.579 324.265,253.553 324.100 C 253.362 322.891,253.663 320.680,253.955 321.141 C 254.174 321.486,254.402 320.579,254.583 318.644 C 254.740 316.973,255.033 315.504,255.234 315.379 C 255.435 315.255,255.600 314.523,255.600 313.753 C 255.600 312.899,255.760 312.452,256.010 312.606 C 256.235 312.745,256.384 312.711,256.340 312.530 C 256.147 311.733,256.928 306.800,257.247 306.800 C 257.441 306.800,257.600 306.271,257.600 305.624 C 257.600 304.977,257.759 304.349,257.952 304.229 C 258.146 304.110,258.432 302.658,258.587 301.003 C 258.742 299.349,259.033 298.097,259.234 298.221 C 259.435 298.346,259.600 297.817,259.600 297.047 C 259.600 296.277,259.762 295.547,259.959 295.425 C 260.157 295.303,260.449 293.905,260.608 292.318 C 260.768 290.731,261.034 289.155,261.200 288.816 C 261.791 287.610,262.366 285.368,262.640 283.200 C 262.793 281.990,263.063 280.905,263.241 280.788 C 263.418 280.671,263.607 279.918,263.662 279.114 C 263.754 277.745,264.400 277.337,264.400 278.647 C 264.400 278.977,264.584 279.133,264.810 278.994 C 265.035 278.855,265.180 278.889,265.132 279.070 C 264.923 279.859,265.699 284.800,266.032 284.800 C 266.234 284.800,266.400 285.415,266.400 286.167 C 266.400 286.918,266.560 287.593,266.756 287.667 C 267.110 287.800,267.536 290.327,267.586 292.600 C 267.606 293.526,267.701 293.663,268.000 293.200 C 268.280 292.767,268.389 293.134,268.394 294.524 C 268.397 295.582,268.562 296.347,268.760 296.225 C 268.957 296.103,269.246 297.262,269.400 298.801 C 269.555 300.341,269.843 301.600,270.041 301.600 C 270.238 301.600,270.400 302.320,270.400 303.200 C 270.400 304.080,270.562 304.800,270.759 304.800 C 270.957 304.800,271.245 306.060,271.400 307.600 C 271.555 309.140,271.843 310.400,272.041 310.400 C 272.238 310.400,272.400 311.019,272.400 311.776 C 272.400 312.533,272.559 313.251,272.753 313.371 C 272.947 313.491,273.231 314.761,273.385 316.194 C 273.538 317.627,273.829 318.800,274.032 318.800 C 274.234 318.800,274.400 319.415,274.400 320.167 C 274.400 320.918,274.560 321.593,274.756 321.667 C 275.110 321.800,275.536 324.327,275.586 326.600 C 275.606 327.526,275.701 327.663,276.000 327.200 C 276.280 326.767,276.389 327.134,276.394 328.524 C 276.397 329.582,276.562 330.347,276.760 330.225 C 276.957 330.103,277.246 331.262,277.400 332.801 C 277.555 334.341,277.843 335.600,278.041 335.600 C 278.238 335.600,278.400 336.320,278.400 337.200 C 278.400 338.080,278.562 338.800,278.759 338.800 C 278.957 338.800,279.245 340.060,279.400 341.600 C 279.555 343.140,279.843 344.400,280.041 344.400 C 280.238 344.400,280.400 344.994,280.400 345.720 C 280.400 346.446,280.568 347.211,280.773 347.420 C 280.978 347.629,281.268 348.880,281.417 350.200 C 281.567 351.520,281.849 352.660,282.045 352.733 C 282.240 352.807,282.400 353.467,282.400 354.200 C 282.400 354.933,282.560 355.593,282.756 355.667 C 283.110 355.800,283.536 358.327,283.586 360.600 C 283.606 361.526,283.701 361.663,284.000 361.200 C 284.280 360.767,284.389 361.134,284.394 362.524 C 284.397 363.582,284.562 364.347,284.760 364.225 C 284.957 364.103,285.246 365.262,285.400 366.801 C 285.555 368.341,285.843 369.600,286.041 369.600 C 286.238 369.600,286.400 370.320,286.400 371.200 C 286.400 372.080,286.562 372.800,286.759 372.800 C 286.957 372.800,287.245 374.060,287.400 375.600 C 287.555 377.140,287.843 378.400,288.041 378.400 C 288.238 378.400,288.400 378.994,288.400 379.720 C 288.400 380.446,288.568 381.211,288.773 381.420 C 288.978 381.629,289.268 382.880,289.417 384.200 C 289.567 385.520,289.849 386.660,290.045 386.733 C 290.240 386.807,290.400 387.482,290.400 388.233 C 290.400 388.985,290.580 389.600,290.800 389.600 C 291.020 389.600,291.200 390.231,291.200 391.003 L 291.200 392.406 317.900 392.303 L 344.600 392.200 344.727 390.600 C 344.796 389.720,345.021 388.829,345.227 388.620 C 345.432 388.411,345.600 387.661,345.600 386.953 C 345.600 386.246,345.757 385.607,345.949 385.533 C 346.273 385.410,346.768 382.200,346.790 380.076 C 346.796 379.549,346.976 379.262,347.210 379.406 C 347.435 379.545,347.594 379.511,347.563 379.330 C 347.354 378.130,347.661 375.990,348.010 376.206 C 348.235 376.345,348.380 376.311,348.332 376.130 C 348.135 375.387,348.890 370.392,349.231 370.181 C 349.434 370.055,349.600 369.243,349.600 368.376 C 349.600 367.509,349.757 366.800,349.948 366.800 C 350.140 366.800,350.423 365.357,350.576 363.594 C 350.734 361.787,351.018 360.488,351.228 360.617 C 351.437 360.746,351.600 360.037,351.600 359.000 C 351.600 357.984,351.757 357.250,351.949 357.369 C 352.141 357.487,352.423 356.151,352.576 354.399 C 352.729 352.647,353.022 351.110,353.227 350.983 C 353.432 350.857,353.600 350.234,353.600 349.600 C 353.600 348.966,353.759 348.349,353.952 348.229 C 354.146 348.110,354.435 346.614,354.595 344.906 C 354.754 343.198,355.036 341.705,355.221 341.590 C 355.406 341.474,355.602 340.619,355.657 339.690 C 355.712 338.760,355.883 338.000,356.038 338.000 C 356.192 338.000,356.445 336.740,356.600 335.200 C 356.755 333.660,357.043 332.400,357.241 332.400 C 357.438 332.400,357.600 331.716,357.600 330.880 C 357.600 330.044,357.766 329.189,357.970 328.980 C 358.173 328.771,358.464 327.340,358.616 325.800 C 358.768 324.260,359.051 322.940,359.246 322.867 C 359.441 322.793,359.600 322.039,359.600 321.190 C 359.600 320.342,359.770 319.542,359.977 319.414 C 360.184 319.286,360.477 317.926,360.628 316.391 C 360.780 314.856,361.060 313.600,361.252 313.600 C 361.443 313.600,361.600 312.880,361.600 312.000 C 361.600 311.120,361.754 310.400,361.943 310.400 C 362.131 310.400,362.406 309.103,362.553 307.517 C 362.700 305.932,362.958 304.537,363.125 304.417 C 363.292 304.298,363.485 303.480,363.554 302.600 C 363.622 301.721,363.833 300.712,364.022 300.359 C 364.211 300.005,364.488 298.525,364.637 297.068 C 364.786 295.612,365.064 294.516,365.254 294.634 C 365.444 294.751,365.600 294.117,365.600 293.224 C 365.600 292.331,365.780 291.600,366.000 291.600 C 366.220 291.600,366.365 291.465,366.322 291.300 C 366.134 290.571,366.899 285.586,367.231 285.381 C 367.434 285.255,367.600 284.563,367.600 283.843 C 367.600 283.123,367.735 282.398,367.900 282.233 C 368.065 282.068,368.213 281.813,368.229 281.667 C 368.643 277.799,368.963 275.947,369.247 275.771 C 369.441 275.651,369.600 274.833,369.600 273.953 C 369.600 272.962,369.756 272.449,370.010 272.606 C 370.235 272.745,370.386 272.711,370.344 272.530 C 370.167 271.753,370.936 266.363,371.253 266.168 C 371.444 266.049,371.600 265.459,371.600 264.856 C 371.600 264.253,371.825 263.518,372.100 263.221 C 372.507 262.783,372.488 262.745,372.000 263.018 C 371.497 263.299,371.483 263.252,371.911 262.723 C 372.192 262.376,372.533 260.896,372.670 259.433 C 372.806 257.971,373.072 256.679,373.259 256.564 C 373.447 256.448,373.600 255.733,373.600 254.976 C 373.600 254.219,373.759 253.600,373.953 253.600 C 374.147 253.600,374.432 252.251,374.587 250.603 C 374.741 248.954,375.033 247.504,375.234 247.379 C 375.435 247.255,375.600 246.433,375.600 245.553 C 375.600 244.673,375.743 244.041,375.917 244.149 C 376.091 244.256,376.276 243.862,376.327 243.272 C 376.378 242.683,376.491 241.840,376.579 241.400 C 376.667 240.960,376.753 240.004,376.769 239.276 C 376.787 238.502,376.966 238.055,377.200 238.200 C 377.444 238.351,377.600 237.745,377.600 236.647 C 377.600 235.657,377.770 234.742,377.977 234.614 C 378.184 234.486,378.478 233.122,378.629 231.582 C 378.781 230.042,379.061 228.686,379.253 228.568 C 379.444 228.449,379.600 227.733,379.600 226.976 C 379.600 226.219,379.761 225.600,379.958 225.600 C 380.155 225.600,380.444 224.161,380.600 222.402 C 380.757 220.623,381.046 219.305,381.251 219.432 C 381.454 219.557,381.594 219.511,381.563 219.330 C 381.354 218.130,381.661 215.990,382.010 216.206 C 382.235 216.345,382.380 216.311,382.332 216.130 C 382.135 215.387,382.890 210.392,383.231 210.181 C 383.434 210.055,383.600 209.243,383.600 208.376 C 383.600 207.509,383.757 206.800,383.948 206.800 C 384.140 206.800,384.422 205.360,384.576 203.600 C 384.729 201.840,385.023 200.400,385.227 200.400 C 385.432 200.400,385.600 199.669,385.600 198.776 C 385.600 197.883,385.759 197.251,385.953 197.371 C 386.147 197.491,386.434 196.062,386.589 194.195 C 386.745 192.328,387.036 190.800,387.236 190.800 C 387.436 190.800,387.600 190.271,387.600 189.624 C 387.600 188.977,387.780 188.336,388.000 188.200 C 388.220 188.064,388.400 187.153,388.400 186.176 L 388.400 184.400 363.000 184.400 C 349.030 184.400,337.594 184.445,337.586 184.500 C 337.578 184.555,337.468 185.680,337.341 187.000 C 337.215 188.320,336.951 189.571,336.756 189.780 C 336.560 189.989,336.400 190.844,336.400 191.680 C 336.400 192.516,336.243 193.200,336.052 193.200 C 335.860 193.200,335.576 194.820,335.422 196.800 C 335.267 198.780,334.973 200.400,334.770 200.400 C 334.566 200.400,334.400 201.132,334.400 202.026 C 334.400 202.921,334.226 203.977,334.014 204.374 C 333.801 204.771,333.506 206.554,333.357 208.337 C 333.208 210.119,332.932 211.482,332.743 211.365 C 332.555 211.248,332.400 212.048,332.400 213.143 C 332.400 214.238,332.239 215.193,332.042 215.267 C 331.845 215.340,331.558 216.930,331.404 218.800 C 331.251 220.670,330.962 222.371,330.763 222.580 C 330.563 222.789,330.400 223.543,330.400 224.256 C 330.400 224.969,330.244 225.649,330.052 225.768 C 329.861 225.886,329.578 227.607,329.422 229.591 C 329.267 231.576,328.973 233.200,328.770 233.200 C 328.566 233.200,328.400 234.089,328.400 235.176 C 328.400 236.263,328.242 237.251,328.048 237.370 C 327.854 237.490,327.568 239.121,327.412 240.994 C 327.256 242.867,326.964 244.400,326.764 244.400 C 326.564 244.400,326.400 245.120,326.400 246.000 C 326.400 246.880,326.231 247.600,326.025 247.600 C 325.819 247.600,325.662 247.915,325.677 248.300 C 325.745 250.009,325.065 255.013,324.749 255.133 C 324.557 255.207,324.400 255.961,324.400 256.810 C 324.400 257.658,324.242 258.451,324.048 258.570 C 323.854 258.690,323.568 260.320,323.412 262.193 C 323.256 264.065,322.965 265.698,322.764 265.822 C 322.564 265.946,322.400 266.847,322.400 267.824 C 322.400 268.801,322.241 269.600,322.048 269.600 C 321.854 269.600,321.567 271.310,321.410 273.399 C 321.254 275.489,320.962 277.300,320.763 277.423 C 320.563 277.546,320.397 278.492,320.394 279.524 C 320.390 280.724,320.264 281.205,320.045 280.858 C 319.831 280.521,319.593 281.768,319.413 284.159 C 319.254 286.282,318.963 287.901,318.763 287.777 C 318.563 287.654,318.400 288.463,318.400 289.576 C 318.400 290.689,318.243 291.600,318.052 291.600 C 317.860 291.600,317.574 293.085,317.416 294.900 C 317.258 296.715,316.920 298.460,316.665 298.777 C 316.291 299.241,316.317 299.288,316.800 299.018 C 317.288 298.745,317.307 298.783,316.900 299.221 C 316.625 299.518,316.400 300.354,316.400 301.080 C 316.400 301.806,316.220 302.400,316.000 302.400 C 315.780 302.400,315.630 302.535,315.667 302.700 C 315.816 303.376,315.078 309.600,314.848 309.594 C 314.081 309.575,313.632 308.789,313.545 307.314 C 313.491 306.397,313.322 305.725,313.169 305.819 C 312.947 305.957,312.638 304.157,312.229 300.333 C 312.213 300.187,312.065 299.932,311.900 299.767 C 311.735 299.602,311.600 298.957,311.600 298.333 C 311.600 297.710,311.446 297.200,311.257 297.200 C 311.069 297.200,310.794 295.895,310.646 294.300 C 310.499 292.705,310.203 291.340,309.989 291.267 C 309.775 291.193,309.600 290.518,309.600 289.767 C 309.600 288.943,309.401 288.398,309.100 288.394 C 308.767 288.390,308.800 288.258,309.200 288.000 C 309.559 287.768,309.609 287.610,309.324 287.606 C 309.029 287.602,308.743 286.534,308.572 284.791 C 308.419 283.246,308.139 281.886,307.947 281.768 C 307.756 281.649,307.600 281.038,307.600 280.410 C 307.600 279.781,307.443 279.207,307.250 279.133 C 307.058 279.060,306.778 277.830,306.629 276.400 C 306.479 274.970,306.187 273.629,305.979 273.420 C 305.770 273.211,305.600 272.446,305.600 271.720 C 305.600 270.934,305.398 270.398,305.100 270.394 C 304.767 270.390,304.800 270.258,305.200 270.000 C 305.559 269.768,305.609 269.610,305.324 269.606 C 305.029 269.602,304.743 268.534,304.572 266.791 C 304.419 265.246,304.139 263.886,303.947 263.768 C 303.756 263.649,303.600 263.149,303.600 262.656 C 303.600 262.163,303.440 261.589,303.243 261.380 C 303.047 261.171,302.768 259.830,302.622 258.400 C 302.476 256.970,302.187 255.629,301.979 255.420 C 301.770 255.211,301.600 254.367,301.600 253.544 C 301.600 252.721,301.430 251.942,301.223 251.814 C 301.016 251.686,300.722 250.322,300.571 248.782 C 300.419 247.242,300.139 245.886,299.947 245.768 C 299.756 245.649,299.600 245.023,299.600 244.376 C 299.600 243.729,299.446 243.200,299.258 243.200 C 299.070 243.200,298.803 241.998,298.666 240.528 C 298.529 239.059,298.233 237.673,298.008 237.448 C 297.784 237.224,297.600 236.367,297.600 235.544 C 297.600 234.721,297.430 233.942,297.223 233.814 C 297.016 233.686,296.722 232.322,296.571 230.782 C 296.419 229.242,296.139 227.886,295.947 227.768 C 295.756 227.649,295.600 227.023,295.600 226.376 C 295.600 225.729,295.443 225.200,295.252 225.200 C 295.060 225.200,294.780 223.944,294.628 222.409 C 294.477 220.874,294.184 219.514,293.977 219.386 C 293.770 219.258,293.600 218.454,293.600 217.600 C 293.600 216.746,293.434 215.945,293.231 215.819 C 293.029 215.694,292.738 214.423,292.585 212.996 C 292.432 211.568,292.148 210.400,291.953 210.400 C 291.759 210.400,291.600 209.680,291.600 208.800 C 291.600 207.920,291.446 207.200,291.257 207.200 C 291.068 207.200,290.800 206.112,290.661 204.782 C 290.522 203.451,290.227 202.023,290.004 201.608 C 289.782 201.192,289.600 200.221,289.600 199.450 C 289.600 198.678,289.434 197.945,289.231 197.819 C 289.029 197.694,288.738 196.423,288.585 194.996 C 288.432 193.568,288.148 192.400,287.953 192.400 C 287.759 192.400,287.600 191.680,287.600 190.800 C 287.600 189.920,287.420 189.200,287.200 189.200 C 286.980 189.200,286.800 188.683,286.800 188.050 C 286.800 187.417,286.688 186.337,286.550 185.650 L 286.300 184.400 264.350 184.400 L 242.400 184.400 242.400 185.400 C 242.400 185.950,242.249 186.400,242.065 186.400 C 241.881 186.400,241.517 187.795,241.255 189.500 C 240.497 194.444,240.331 195.200,240.003 195.200 C 239.833 195.200,239.567 196.550,239.413 198.200 C 239.258 199.850,238.967 201.200,238.766 201.200 C 238.565 201.200,238.400 201.909,238.400 202.776 C 238.400 203.643,238.234 204.455,238.031 204.581 C 237.829 204.706,237.537 206.022,237.383 207.504 C 237.229 208.987,236.967 210.380,236.802 210.600 C 236.636 210.820,236.394 211.540,236.265 212.200 C 236.135 212.860,235.741 214.840,235.390 216.600 C 235.038 218.360,234.652 220.385,234.531 221.100 C 234.411 221.815,234.152 222.400,233.956 222.400 C 233.760 222.400,233.629 222.535,233.665 222.700 C 233.825 223.431,233.071 228.767,232.829 228.618 C 232.681 228.527,232.516 229.110,232.462 229.914 C 232.407 230.718,232.213 231.471,232.029 231.588 C 231.846 231.705,231.568 233.059,231.413 234.598 C 231.257 236.137,231.010 237.487,230.864 237.598 C 230.717 237.709,230.536 238.340,230.461 239.000 C 230.249 240.864,230.219 240.986,229.910 241.217 C 229.751 241.337,229.500 242.732,229.353 244.317 C 229.206 245.903,228.931 247.200,228.743 247.200 C 228.554 247.200,228.400 247.704,228.400 248.320 C 228.400 248.936,228.175 249.682,227.900 249.979 C 227.493 250.417,227.512 250.455,228.000 250.182 C 228.482 249.912,228.509 249.960,228.139 250.423 C 227.722 250.943,226.930 255.366,227.122 256.100 C 227.165 256.265,227.020 256.400,226.800 256.400 C 226.580 256.400,226.400 257.019,226.400 257.776 C 226.400 258.533,226.230 259.258,226.023 259.386 C 225.816 259.514,225.523 260.874,225.372 262.409 C 225.220 263.944,224.940 265.200,224.748 265.200 C 224.557 265.200,224.400 265.920,224.400 266.800 C 224.400 267.680,224.235 268.400,224.034 268.400 C 223.833 268.400,223.542 269.750,223.387 271.400 C 223.233 273.050,222.947 274.400,222.753 274.400 C 222.559 274.400,222.400 275.030,222.400 275.800 C 222.400 276.570,222.239 277.200,222.042 277.200 C 221.845 277.200,221.556 278.639,221.400 280.398 C 221.244 282.157,220.956 283.496,220.759 283.374 C 220.561 283.253,220.400 283.883,220.400 284.776 C 220.400 285.669,220.235 286.400,220.034 286.400 C 219.833 286.400,219.542 287.753,219.387 289.406 C 219.232 291.059,218.946 292.510,218.752 292.629 C 218.559 292.749,218.400 293.467,218.400 294.224 C 218.400 294.981,218.241 295.600,218.047 295.600 C 217.853 295.600,217.568 296.949,217.413 298.597 C 217.259 300.246,216.967 301.696,216.766 301.821 C 216.565 301.945,216.397 302.802,216.394 303.724 C 216.389 304.953,216.284 305.240,216.000 304.800 C 215.704 304.342,215.611 304.494,215.606 305.444 C 215.596 307.584,215.107 310.400,214.746 310.400 C 214.556 310.400,214.400 309.770,214.400 309.000 C 214.400 308.230,214.220 307.600,214.000 307.600 C 213.780 307.600,213.600 306.689,213.600 305.576 C 213.600 304.463,213.437 303.654,213.237 303.777 C 213.037 303.901,212.747 302.302,212.590 300.206 C 212.434 298.119,212.147 296.509,211.953 296.629 C 211.759 296.749,211.600 296.042,211.600 295.057 C 211.600 294.072,211.429 293.207,211.220 293.133 C 211.011 293.060,210.715 291.335,210.563 289.300 C 210.410 287.265,210.131 285.600,209.943 285.600 C 209.754 285.600,209.600 284.801,209.600 283.824 C 209.600 282.847,209.436 281.946,209.236 281.822 C 209.035 281.698,208.744 280.065,208.588 278.193 C 208.432 276.320,208.146 274.690,207.952 274.570 C 207.758 274.451,207.600 273.658,207.600 272.810 C 207.600 271.961,207.443 271.207,207.251 271.133 C 207.059 271.060,206.777 269.650,206.626 268.000 C 206.474 266.350,206.181 264.829,205.975 264.620 C 205.769 264.411,205.600 263.387,205.600 262.344 C 205.600 261.301,205.436 260.346,205.236 260.222 C 205.035 260.098,204.744 258.468,204.588 256.599 C 204.433 254.729,204.147 253.200,203.953 253.200 C 203.759 253.200,203.600 252.300,203.600 251.200 C 203.600 250.100,203.434 249.200,203.230 249.200 C 203.027 249.200,202.733 247.576,202.578 245.591 C 202.422 243.607,202.139 241.886,201.948 241.768 C 201.756 241.649,201.600 240.858,201.600 240.010 C 201.600 239.161,201.441 238.407,201.247 238.333 C 201.052 238.260,200.768 236.760,200.615 235.000 C 200.462 233.240,200.171 231.629,199.968 231.420 C 199.766 231.211,199.600 230.165,199.600 229.096 C 199.600 228.027,199.445 227.248,199.257 227.365 C 199.068 227.482,198.790 226.099,198.639 224.291 C 198.488 222.484,198.193 220.833,197.983 220.623 C 197.772 220.412,197.600 219.376,197.600 218.320 C 197.600 217.264,197.439 216.400,197.242 216.400 C 197.046 216.400,196.757 214.780,196.600 212.800 C 196.443 210.820,196.154 209.200,195.958 209.200 C 195.761 209.200,195.600 208.581,195.600 207.824 C 195.600 207.067,195.420 206.336,195.200 206.200 C 194.980 206.064,194.800 204.990,194.800 203.814 C 194.800 201.872,194.726 201.694,194.000 201.884 C 193.351 202.054,193.200 201.896,193.200 201.047 C 193.200 200.471,193.052 200.000,192.872 200.000 C 192.585 200.000,192.134 197.537,191.368 191.800 C 191.251 190.920,190.990 189.840,190.790 189.400 C 190.589 188.960,190.374 187.970,190.312 187.200 L 190.200 185.800 166.100 185.697 C 145.047 185.607,142.000 185.518,142.000 184.997 C 142.000 184.667,141.643 184.400,141.200 184.400 C 140.613 184.400,140.400 184.667,140.400 185.400 " stroke="none" fill="#444444" fill-rule="evenodd"></path><path id="path1" d="M95.100 7.473 C 93.615 7.563,92.400 7.808,92.400 8.018 C 92.400 8.228,91.680 8.400,90.800 8.400 C 89.920 8.400,89.200 8.554,89.200 8.743 C 89.200 8.931,87.895 9.206,86.300 9.354 C 84.705 9.501,83.340 9.797,83.267 10.011 C 83.193 10.225,82.518 10.400,81.767 10.400 C 81.015 10.400,80.400 10.563,80.400 10.762 C 80.400 10.962,79.500 11.249,78.400 11.400 C 77.300 11.551,76.400 11.838,76.400 12.038 C 76.400 12.237,75.950 12.400,75.400 12.400 C 74.850 12.400,74.400 12.557,74.400 12.749 C 74.400 12.941,73.680 13.213,72.800 13.354 C 71.920 13.494,71.200 13.787,71.200 14.005 C 71.200 14.222,70.750 14.400,70.200 14.400 C 69.650 14.400,69.200 14.560,69.200 14.755 C 69.200 14.951,68.570 15.229,67.800 15.374 C 67.030 15.518,66.400 15.808,66.400 16.018 C 66.400 16.228,66.130 16.400,65.800 16.400 C 65.470 16.400,65.200 16.560,65.200 16.755 C 65.200 16.951,64.570 17.229,63.800 17.374 C 63.030 17.518,62.400 17.808,62.400 18.018 C 62.400 18.228,62.130 18.400,61.800 18.400 C 61.470 18.400,61.200 18.558,61.200 18.750 C 61.200 18.943,60.636 19.213,59.946 19.351 C 59.257 19.489,58.402 19.935,58.046 20.344 C 57.691 20.752,56.950 21.227,56.400 21.400 C 55.850 21.573,55.109 22.049,54.753 22.457 C 54.397 22.866,53.910 23.200,53.671 23.200 C 53.432 23.200,52.808 23.628,52.284 24.152 C 51.761 24.676,50.952 25.225,50.487 25.373 C 50.021 25.520,49.530 25.992,49.394 26.420 C 49.257 26.849,48.863 27.200,48.516 27.200 C 48.170 27.200,47.371 27.740,46.740 28.400 C 46.109 29.060,45.420 29.600,45.209 29.600 C 44.708 29.600,35.600 38.708,35.600 39.209 C 35.600 39.420,35.060 40.109,34.400 40.740 C 33.740 41.371,33.200 42.170,33.200 42.516 C 33.200 42.863,32.849 43.257,32.420 43.394 C 31.992 43.530,31.520 44.021,31.373 44.487 C 31.225 44.952,30.676 45.761,30.152 46.284 C 29.628 46.808,29.200 47.432,29.200 47.671 C 29.200 47.910,28.866 48.397,28.457 48.753 C 28.049 49.109,27.573 49.850,27.400 50.400 C 27.227 50.950,26.752 51.691,26.344 52.046 C 25.935 52.402,25.489 53.257,25.351 53.946 C 25.213 54.636,24.943 55.200,24.750 55.200 C 24.558 55.200,24.400 55.470,24.400 55.800 C 24.400 56.130,24.223 56.400,24.008 56.400 C 23.792 56.400,23.502 56.850,23.364 57.400 C 23.226 57.950,22.953 58.400,22.757 58.400 C 22.560 58.400,22.400 58.670,22.400 59.000 C 22.400 59.330,22.240 59.600,22.045 59.600 C 21.849 59.600,21.571 60.230,21.426 61.000 C 21.282 61.770,20.992 62.400,20.782 62.400 C 20.572 62.400,20.400 62.850,20.400 63.400 C 20.400 63.950,20.228 64.400,20.018 64.400 C 19.808 64.400,19.518 65.030,19.374 65.800 C 19.229 66.570,18.951 67.200,18.755 67.200 C 18.560 67.200,18.400 67.650,18.400 68.200 C 18.400 68.750,18.243 69.200,18.051 69.200 C 17.859 69.200,17.587 69.920,17.446 70.800 C 17.306 71.680,17.013 72.400,16.795 72.400 C 16.578 72.400,16.400 72.850,16.400 73.400 C 16.400 73.950,16.229 74.400,16.020 74.400 C 15.811 74.400,15.518 75.480,15.368 76.800 C 15.219 78.120,14.940 79.200,14.748 79.200 C 14.557 79.200,14.400 79.650,14.400 80.200 C 14.400 80.750,14.234 81.200,14.032 81.200 C 13.829 81.200,13.538 82.370,13.385 83.800 C 13.232 85.230,12.948 86.400,12.753 86.400 C 12.559 86.400,12.400 87.120,12.400 88.000 C 12.400 88.880,12.237 89.600,12.037 89.600 C 11.838 89.600,11.546 91.310,11.390 93.400 C 11.233 95.490,10.946 97.200,10.752 97.200 C 10.559 97.200,10.400 98.355,10.400 99.767 C 10.400 101.464,10.231 102.390,9.900 102.500 C 9.168 102.744,9.168 150.456,9.900 150.700 C 10.225 150.808,10.400 151.696,10.400 153.233 C 10.400 154.535,10.561 155.600,10.757 155.600 C 10.953 155.600,11.243 157.400,11.400 159.600 C 11.557 161.800,11.847 163.600,12.043 163.600 C 12.239 163.600,12.400 164.230,12.400 165.000 C 12.400 165.770,12.566 166.400,12.768 166.400 C 12.971 166.400,13.262 167.570,13.415 169.000 C 13.568 170.430,13.852 171.600,14.047 171.600 C 14.241 171.600,14.400 172.230,14.400 173.000 C 14.400 173.770,14.563 174.400,14.762 174.400 C 14.962 174.400,15.249 175.300,15.400 176.400 C 15.551 177.500,15.838 178.400,16.038 178.400 C 16.237 178.400,16.400 178.850,16.400 179.400 C 16.400 179.950,16.578 180.400,16.795 180.400 C 17.013 180.400,17.306 181.120,17.446 182.000 C 17.587 182.880,17.859 183.600,18.051 183.600 C 18.243 183.600,18.400 184.050,18.400 184.600 C 18.400 185.150,18.572 185.600,18.782 185.600 C 18.992 185.600,19.282 186.230,19.426 187.000 C 19.571 187.770,19.849 188.400,20.045 188.400 C 20.240 188.400,20.400 188.670,20.400 189.000 C 20.400 189.330,20.557 189.600,20.749 189.600 C 20.941 189.600,21.213 190.320,21.354 191.200 C 21.494 192.080,21.787 192.800,22.005 192.800 C 22.222 192.800,22.400 193.141,22.400 193.557 C 22.400 193.974,22.670 194.418,23.000 194.545 C 23.330 194.671,23.600 195.141,23.600 195.587 C 23.600 196.034,23.780 196.400,24.000 196.400 C 24.220 196.400,24.400 196.670,24.400 197.000 C 24.400 197.330,24.572 197.600,24.782 197.600 C 24.992 197.600,25.281 198.224,25.424 198.986 C 25.585 199.845,25.972 200.464,26.442 200.613 C 26.859 200.746,27.200 201.207,27.200 201.640 C 27.200 202.072,27.470 202.529,27.800 202.655 C 28.130 202.782,28.400 203.207,28.400 203.600 C 28.400 203.993,28.670 204.418,29.000 204.545 C 29.330 204.671,29.600 205.128,29.600 205.560 C 29.600 205.995,29.958 206.460,30.400 206.600 C 30.840 206.740,31.200 207.177,31.200 207.571 C 31.200 207.965,31.650 208.626,32.200 209.039 C 32.750 209.452,33.200 210.010,33.200 210.279 C 33.200 210.549,33.920 211.482,34.800 212.353 C 35.680 213.224,36.400 214.131,36.400 214.369 C 36.400 214.606,36.568 214.800,36.773 214.800 C 36.978 214.800,37.257 215.151,37.394 215.580 C 37.530 216.008,37.983 216.467,38.400 216.600 C 38.817 216.733,39.267 217.183,39.400 217.600 C 39.533 218.017,39.983 218.467,40.400 218.600 C 40.817 218.733,41.267 219.183,41.400 219.600 C 41.533 220.017,41.983 220.467,42.400 220.600 C 42.817 220.733,43.267 221.183,43.400 221.600 C 43.533 222.017,44.030 222.483,44.507 222.634 C 44.983 222.785,45.960 223.514,46.679 224.254 C 47.398 224.994,48.178 225.600,48.412 225.600 C 48.646 225.600,49.255 226.050,49.765 226.600 C 50.275 227.150,50.819 227.600,50.974 227.600 C 51.130 227.600,51.508 227.825,51.815 228.100 C 53.138 229.287,53.591 229.600,53.983 229.600 C 54.212 229.600,54.400 229.777,54.400 229.992 C 54.400 230.208,54.850 230.498,55.400 230.636 C 55.950 230.774,56.400 231.047,56.400 231.243 C 56.400 231.440,56.670 231.600,57.000 231.600 C 57.330 231.600,57.600 231.777,57.600 231.992 C 57.600 232.208,58.050 232.498,58.600 232.636 C 59.150 232.774,59.600 233.047,59.600 233.243 C 59.600 233.440,59.960 233.600,60.400 233.600 C 60.840 233.600,61.200 233.766,61.200 233.968 C 61.200 234.171,61.740 234.455,62.400 234.600 C 63.060 234.745,63.600 235.029,63.600 235.232 C 63.600 235.434,63.960 235.600,64.400 235.600 C 64.840 235.600,65.200 235.766,65.200 235.968 C 65.200 236.171,65.740 236.455,66.400 236.600 C 67.060 236.745,67.600 237.029,67.600 237.232 C 67.600 237.434,67.960 237.600,68.400 237.600 C 68.840 237.600,69.200 237.757,69.200 237.949 C 69.200 238.141,69.920 238.413,70.800 238.554 C 71.680 238.694,72.400 238.987,72.400 239.205 C 72.400 239.422,72.850 239.600,73.400 239.600 C 73.950 239.600,74.400 239.763,74.400 239.962 C 74.400 240.162,75.300 240.449,76.400 240.600 C 77.500 240.751,78.400 241.038,78.400 241.238 C 78.400 241.437,78.850 241.600,79.400 241.600 C 79.950 241.600,80.400 241.759,80.400 241.953 C 80.400 242.148,81.570 242.432,83.000 242.585 C 84.430 242.738,85.600 243.029,85.600 243.232 C 85.600 243.434,86.395 243.600,87.367 243.600 C 88.338 243.600,89.193 243.776,89.267 243.992 C 89.340 244.208,91.245 244.505,93.500 244.652 C 95.755 244.800,97.600 245.073,97.600 245.260 C 97.600 245.447,103.630 245.600,111.000 245.600 C 118.370 245.600,124.400 245.447,124.400 245.260 C 124.400 245.073,126.245 244.800,128.500 244.652 C 130.755 244.505,132.660 244.208,132.733 243.992 C 132.807 243.776,133.662 243.600,134.633 243.600 C 135.605 243.600,136.400 243.434,136.400 243.232 C 136.400 243.029,137.570 242.738,139.000 242.585 C 140.430 242.432,141.600 242.148,141.600 241.953 C 141.600 241.759,142.050 241.600,142.600 241.600 C 143.150 241.600,143.600 241.437,143.600 241.238 C 143.600 241.038,144.500 240.751,145.600 240.600 C 146.700 240.449,147.600 240.162,147.600 239.962 C 147.600 239.763,148.035 239.600,148.567 239.600 C 149.098 239.600,149.603 239.390,149.689 239.133 C 149.774 238.877,150.434 238.667,151.155 238.667 L 152.466 238.667 152.260 236.633 C 151.958 233.640,151.175 229.501,150.761 228.705 C 150.562 228.323,150.398 227.603,150.396 227.105 C 150.393 226.607,150.123 225.316,149.796 224.236 C 149.468 223.156,149.200 221.707,149.200 221.016 C 149.200 220.325,149.038 219.589,148.841 219.380 C 148.644 219.171,148.386 218.280,148.270 217.400 C 148.153 216.520,147.767 214.450,147.411 212.800 C 147.055 211.150,146.608 209.080,146.419 208.200 C 146.229 207.320,145.857 205.430,145.594 204.000 C 145.330 202.570,144.965 201.040,144.784 200.600 C 144.603 200.160,144.371 199.260,144.268 198.600 C 143.752 195.275,143.109 192.115,142.803 191.400 C 142.615 190.960,142.373 189.820,142.264 188.867 C 142.156 187.914,141.985 187.052,141.885 186.952 C 141.527 186.594,139.611 187.735,139.387 188.440 C 139.262 188.836,138.817 189.267,138.400 189.400 C 137.983 189.533,137.533 189.983,137.400 190.400 C 137.267 190.817,136.817 191.267,136.400 191.400 C 135.983 191.533,135.533 191.983,135.400 192.400 C 135.267 192.817,134.808 193.270,134.380 193.406 C 133.951 193.543,133.600 193.822,133.600 194.027 C 133.600 194.232,133.330 194.400,133.000 194.400 C 132.670 194.400,132.400 194.568,132.400 194.773 C 132.400 194.978,131.995 195.274,131.500 195.430 C 131.005 195.587,130.319 196.037,129.976 196.430 C 129.633 196.824,128.868 197.268,128.276 197.417 C 127.684 197.565,127.200 197.847,127.200 198.043 C 127.200 198.240,126.750 198.400,126.200 198.400 C 125.650 198.400,125.200 198.574,125.200 198.786 C 125.200 198.999,124.300 199.292,123.200 199.438 C 122.100 199.584,121.200 199.860,121.200 200.052 C 121.200 200.243,120.570 200.400,119.800 200.400 C 119.030 200.400,118.400 200.580,118.400 200.800 C 118.400 201.052,115.667 201.200,111.000 201.200 C 106.333 201.200,103.600 201.052,103.600 200.800 C 103.600 200.580,102.880 200.400,102.000 200.400 C 101.120 200.400,100.400 200.237,100.400 200.038 C 100.400 199.838,99.500 199.551,98.400 199.400 C 97.300 199.249,96.400 198.962,96.400 198.762 C 96.400 198.563,96.040 198.400,95.600 198.400 C 95.160 198.400,94.800 198.234,94.800 198.032 C 94.800 197.829,94.260 197.545,93.600 197.400 C 92.940 197.255,92.400 196.971,92.400 196.768 C 92.400 196.566,92.040 196.400,91.600 196.400 C 91.160 196.400,90.800 196.240,90.800 196.043 C 90.800 195.847,90.362 195.577,89.827 195.442 C 89.291 195.308,88.739 194.839,88.600 194.399 C 88.460 193.960,88.072 193.600,87.736 193.600 C 86.960 193.600,80.980 187.599,80.618 186.457 C 80.468 185.986,80.178 185.600,79.973 185.600 C 79.768 185.600,79.600 185.330,79.600 185.000 C 79.600 184.670,79.432 184.400,79.227 184.400 C 79.022 184.400,78.726 183.995,78.570 183.500 C 78.413 183.005,77.963 182.319,77.570 181.976 C 77.176 181.633,76.732 180.868,76.583 180.276 C 76.435 179.684,76.153 179.200,75.957 179.200 C 75.760 179.200,75.600 178.840,75.600 178.400 C 75.600 177.960,75.422 177.600,75.205 177.600 C 74.987 177.600,74.694 176.880,74.554 176.000 C 74.413 175.120,74.141 174.400,73.949 174.400 C 73.757 174.400,73.600 174.130,73.600 173.800 C 73.600 173.470,73.437 173.200,73.238 173.200 C 73.038 173.200,72.751 172.300,72.600 171.200 C 72.449 170.100,72.162 169.200,71.962 169.200 C 71.763 169.200,71.600 168.750,71.600 168.200 C 71.600 167.650,71.438 167.200,71.241 167.200 C 71.043 167.200,70.755 165.940,70.600 164.400 C 70.445 162.860,70.157 161.600,69.959 161.600 C 69.762 161.600,69.600 160.880,69.600 160.000 C 69.600 159.120,69.435 158.400,69.234 158.400 C 69.032 158.400,68.739 156.420,68.582 154.000 C 68.425 151.580,68.140 149.600,67.949 149.600 C 67.757 149.600,67.600 147.800,67.600 145.600 C 67.600 143.200,67.440 141.600,67.200 141.600 C 66.940 141.600,66.800 136.333,66.800 126.600 C 66.800 116.867,66.940 111.600,67.200 111.600 C 67.440 111.600,67.600 110.000,67.600 107.600 C 67.600 105.400,67.754 103.600,67.943 103.600 C 68.132 103.600,68.413 101.575,68.568 99.100 C 68.724 96.625,69.019 94.540,69.225 94.467 C 69.431 94.393,69.600 93.538,69.600 92.567 C 69.600 91.595,69.766 90.800,69.968 90.800 C 70.171 90.800,70.462 89.630,70.615 88.200 C 70.768 86.770,71.052 85.600,71.247 85.600 C 71.441 85.600,71.600 85.150,71.600 84.600 C 71.600 84.050,71.763 83.600,71.962 83.600 C 72.162 83.600,72.449 82.700,72.600 81.600 C 72.751 80.500,73.038 79.600,73.238 79.600 C 73.437 79.600,73.600 79.150,73.600 78.600 C 73.600 78.050,73.772 77.600,73.982 77.600 C 74.192 77.600,74.482 76.970,74.626 76.200 C 74.771 75.430,75.049 74.800,75.245 74.800 C 75.440 74.800,75.600 74.530,75.600 74.200 C 75.600 73.870,75.772 73.600,75.982 73.600 C 76.192 73.600,76.482 72.970,76.626 72.200 C 76.771 71.430,77.049 70.800,77.245 70.800 C 77.440 70.800,77.600 70.530,77.600 70.200 C 77.600 69.870,77.777 69.600,77.992 69.600 C 78.208 69.600,78.489 69.185,78.616 68.677 C 78.744 68.169,79.287 67.424,79.824 67.021 C 80.361 66.618,80.800 65.965,80.800 65.571 C 80.800 65.177,81.151 64.743,81.580 64.606 C 82.008 64.470,82.467 64.017,82.600 63.600 C 82.733 63.183,83.183 62.733,83.600 62.600 C 84.017 62.467,84.467 62.017,84.600 61.600 C 84.733 61.183,85.192 60.730,85.620 60.594 C 86.049 60.457,86.400 60.178,86.400 59.973 C 86.400 59.768,86.670 59.600,87.000 59.600 C 87.330 59.600,87.600 59.432,87.600 59.227 C 87.600 59.022,88.005 58.726,88.500 58.570 C 88.995 58.413,89.681 57.963,90.024 57.570 C 90.367 57.176,91.132 56.732,91.724 56.583 C 92.316 56.435,92.800 56.153,92.800 55.957 C 92.800 55.760,93.160 55.600,93.600 55.600 C 94.040 55.600,94.400 55.422,94.400 55.205 C 94.400 54.987,95.120 54.694,96.000 54.554 C 96.880 54.413,97.600 54.141,97.600 53.949 C 97.600 53.757,98.215 53.600,98.967 53.600 C 99.718 53.600,100.408 53.375,100.500 53.100 C 100.627 52.718,103.049 52.600,110.800 52.600 C 118.551 52.600,120.972 52.718,121.100 53.100 C 121.192 53.375,121.702 53.600,122.233 53.600 C 122.765 53.600,123.200 53.763,123.200 53.962 C 123.200 54.162,124.100 54.449,125.200 54.600 C 126.300 54.751,127.200 55.038,127.200 55.238 C 127.200 55.437,127.470 55.600,127.800 55.600 C 128.130 55.600,128.400 55.760,128.400 55.957 C 128.400 56.153,128.850 56.426,129.400 56.564 C 129.950 56.702,130.400 56.992,130.400 57.208 C 130.400 57.423,130.670 57.600,131.000 57.600 C 131.330 57.600,131.600 57.768,131.600 57.973 C 131.600 58.178,131.991 58.470,132.468 58.622 C 133.586 58.976,141.018 66.397,141.372 67.511 C 141.520 67.978,141.970 68.464,142.373 68.591 C 142.786 68.722,143.213 69.365,143.353 70.066 C 143.490 70.749,143.949 71.609,144.374 71.977 C 144.799 72.346,145.268 73.132,145.417 73.724 C 145.565 74.316,145.847 74.800,146.043 74.800 C 146.240 74.800,146.400 75.160,146.400 75.600 C 146.400 76.040,146.578 76.400,146.795 76.400 C 147.013 76.400,147.306 77.120,147.446 78.000 C 147.587 78.880,147.859 79.600,148.051 79.600 C 148.243 79.600,148.400 79.870,148.400 80.200 C 148.400 80.530,148.563 80.800,148.762 80.800 C 148.962 80.800,149.249 81.700,149.400 82.800 C 149.551 83.900,149.838 84.800,150.038 84.800 C 150.237 84.800,150.400 85.430,150.400 86.200 C 150.400 86.970,150.559 87.600,150.753 87.600 C 150.948 87.600,151.232 88.770,151.385 90.200 C 151.538 91.630,151.829 92.800,152.032 92.800 C 152.234 92.800,152.400 93.685,152.400 94.767 C 152.400 95.848,152.573 96.793,152.785 96.867 C 152.996 96.940,153.293 99.205,153.445 101.900 C 153.596 104.595,153.873 106.800,154.060 106.800 C 154.247 106.800,154.400 115.530,154.400 126.200 C 154.400 136.870,154.245 145.600,154.056 145.600 C 153.867 145.600,153.584 147.985,153.428 150.900 C 153.271 153.815,152.975 156.260,152.771 156.333 C 152.567 156.407,152.400 157.172,152.400 158.033 C 152.400 158.895,152.246 159.600,152.057 159.600 C 151.869 159.600,151.594 160.905,151.446 162.500 C 151.299 164.095,151.003 165.460,150.789 165.533 C 150.575 165.607,150.400 166.102,150.400 166.633 C 150.400 167.165,150.237 167.600,150.038 167.600 C 149.838 167.600,149.551 168.500,149.400 169.600 C 149.249 170.700,148.962 171.600,148.762 171.600 C 148.563 171.600,148.400 172.050,148.400 172.600 C 148.400 173.150,148.240 173.600,148.045 173.600 C 147.849 173.600,147.571 174.230,147.426 175.000 C 147.282 175.770,146.992 176.400,146.782 176.400 C 146.572 176.400,146.400 176.850,146.400 177.400 C 146.400 177.950,146.223 178.400,146.008 178.400 C 145.792 178.400,145.502 178.850,145.364 179.400 C 145.226 179.950,144.953 180.400,144.757 180.400 C 144.560 180.400,144.400 180.670,144.400 181.000 C 144.400 181.330,144.220 181.600,144.000 181.600 C 143.780 181.600,143.600 181.966,143.600 182.413 C 143.600 182.859,143.330 183.329,143.000 183.455 C 142.670 183.582,142.400 184.026,142.400 184.443 C 142.400 185.177,143.118 185.200,166.357 185.200 C 192.833 185.200,190.800 184.988,190.800 187.753 C 190.800 188.461,190.963 189.211,191.161 189.420 C 191.360 189.629,191.606 190.610,191.709 191.600 C 191.969 194.106,192.747 198.312,193.280 200.100 C 193.699 201.504,194.800 202.220,194.800 201.088 C 194.800 200.807,195.159 200.318,195.598 200.001 C 196.037 199.685,196.507 198.835,196.643 198.113 C 196.778 197.391,197.049 196.800,197.245 196.800 C 197.440 196.800,197.600 196.530,197.600 196.200 C 197.600 195.870,197.772 195.600,197.982 195.600 C 198.192 195.600,198.482 194.970,198.626 194.200 C 198.771 193.430,199.049 192.800,199.245 192.800 C 199.440 192.800,199.600 192.530,199.600 192.200 C 199.600 191.870,199.772 191.600,199.982 191.600 C 200.192 191.600,200.482 190.970,200.626 190.200 C 200.771 189.430,201.049 188.800,201.245 188.800 C 201.440 188.800,201.600 188.530,201.600 188.200 C 201.600 187.870,201.778 187.600,201.995 187.600 C 202.213 187.600,202.506 186.880,202.646 186.000 C 202.787 185.120,203.059 184.400,203.251 184.400 C 203.443 184.400,203.600 184.040,203.600 183.600 C 203.600 183.160,203.763 182.800,203.962 182.800 C 204.162 182.800,204.449 181.900,204.600 180.800 C 204.751 179.700,205.038 178.800,205.238 178.800 C 205.437 178.800,205.600 178.350,205.600 177.800 C 205.600 177.250,205.767 176.800,205.971 176.800 C 206.175 176.800,206.466 175.810,206.617 174.600 C 206.768 173.390,207.051 172.400,207.246 172.400 C 207.441 172.400,207.600 171.950,207.600 171.400 C 207.600 170.850,207.765 170.400,207.966 170.400 C 208.167 170.400,208.458 169.050,208.613 167.400 C 208.767 165.750,209.053 164.400,209.247 164.400 C 209.441 164.400,209.600 163.770,209.600 163.000 C 209.600 162.230,209.765 161.600,209.966 161.600 C 210.168 161.600,210.461 159.620,210.618 157.200 C 210.775 154.780,211.060 152.800,211.251 152.800 C 211.443 152.800,211.600 151.465,211.600 149.833 C 211.600 147.947,211.768 146.811,212.062 146.713 C 212.731 146.490,212.738 105.913,212.069 105.690 C 211.767 105.589,211.600 104.481,211.600 102.567 C 211.600 100.935,211.443 99.600,211.252 99.600 C 211.060 99.600,210.775 97.800,210.619 95.600 C 210.463 93.400,210.170 91.600,209.968 91.600 C 209.766 91.600,209.600 90.880,209.600 90.000 C 209.600 89.120,209.446 88.400,209.257 88.400 C 209.068 88.400,208.797 87.275,208.653 85.900 C 208.510 84.525,208.214 83.340,207.996 83.267 C 207.778 83.193,207.600 82.518,207.600 81.767 C 207.600 81.015,207.429 80.400,207.220 80.400 C 207.011 80.400,206.718 79.320,206.568 78.000 C 206.419 76.680,206.140 75.600,205.948 75.600 C 205.757 75.600,205.600 75.150,205.600 74.600 C 205.600 74.050,205.422 73.600,205.205 73.600 C 204.987 73.600,204.694 72.880,204.554 72.000 C 204.413 71.120,204.141 70.400,203.949 70.400 C 203.757 70.400,203.600 69.950,203.600 69.400 C 203.600 68.850,203.428 68.400,203.218 68.400 C 203.008 68.400,202.718 67.770,202.574 67.000 C 202.429 66.230,202.151 65.600,201.955 65.600 C 201.760 65.600,201.600 65.150,201.600 64.600 C 201.600 64.050,201.434 63.600,201.232 63.600 C 201.029 63.600,200.745 63.060,200.600 62.400 C 200.455 61.740,200.171 61.200,199.968 61.200 C 199.766 61.200,199.600 60.840,199.600 60.400 C 199.600 59.960,199.434 59.600,199.232 59.600 C 199.029 59.600,198.745 59.060,198.600 58.400 C 198.455 57.740,198.171 57.200,197.968 57.200 C 197.766 57.200,197.600 56.859,197.600 56.443 C 197.600 56.026,197.330 55.582,197.000 55.455 C 196.670 55.329,196.400 54.859,196.400 54.413 C 196.400 53.966,196.220 53.600,196.000 53.600 C 195.780 53.600,195.600 53.330,195.600 53.000 C 195.600 52.670,195.423 52.400,195.208 52.400 C 194.992 52.400,194.702 51.950,194.564 51.400 C 194.426 50.850,194.153 50.400,193.957 50.400 C 193.760 50.400,193.600 50.207,193.600 49.971 C 193.600 49.736,193.375 49.292,193.100 48.985 C 191.913 47.662,191.600 47.209,191.600 46.817 C 191.600 46.588,191.423 46.400,191.208 46.400 C 190.992 46.400,190.711 45.985,190.584 45.477 C 190.456 44.969,189.913 44.224,189.376 43.821 C 188.839 43.418,188.400 42.765,188.400 42.371 C 188.400 41.977,188.049 41.543,187.620 41.406 C 187.192 41.270,186.733 40.817,186.600 40.400 C 186.467 39.983,186.008 39.530,185.580 39.394 C 185.151 39.257,184.800 38.874,184.800 38.541 C 184.800 37.867,177.480 30.400,176.819 30.400 C 176.589 30.400,176.400 30.232,176.400 30.027 C 176.400 29.822,176.049 29.543,175.620 29.406 C 175.192 29.270,174.733 28.817,174.600 28.400 C 174.467 27.983,173.979 27.520,173.513 27.373 C 173.048 27.225,172.239 26.676,171.716 26.152 C 171.192 25.628,170.545 25.200,170.277 25.200 C 170.009 25.200,169.452 24.750,169.039 24.200 C 168.626 23.650,167.965 23.200,167.571 23.200 C 167.177 23.200,166.746 22.861,166.615 22.448 C 166.477 22.013,165.851 21.590,165.134 21.447 C 164.451 21.310,163.591 20.851,163.223 20.426 C 162.854 20.001,162.068 19.532,161.476 19.383 C 160.884 19.235,160.400 18.953,160.400 18.757 C 160.400 18.560,160.040 18.400,159.600 18.400 C 159.160 18.400,158.800 18.234,158.800 18.032 C 158.800 17.829,158.260 17.545,157.600 17.400 C 156.940 17.255,156.400 16.971,156.400 16.768 C 156.400 16.566,156.040 16.400,155.600 16.400 C 155.160 16.400,154.800 16.234,154.800 16.032 C 154.800 15.829,154.260 15.545,153.600 15.400 C 152.940 15.255,152.400 14.971,152.400 14.768 C 152.400 14.566,151.950 14.400,151.400 14.400 C 150.850 14.400,150.400 14.231,150.400 14.025 C 150.400 13.818,149.590 13.528,148.600 13.379 C 147.610 13.231,146.800 12.950,146.800 12.755 C 146.800 12.560,146.350 12.400,145.800 12.400 C 145.250 12.400,144.800 12.237,144.800 12.038 C 144.800 11.838,143.900 11.551,142.800 11.400 C 141.700 11.249,140.800 10.962,140.800 10.762 C 140.800 10.563,140.260 10.400,139.600 10.400 C 138.940 10.400,138.400 10.238,138.400 10.041 C 138.400 9.843,137.140 9.555,135.600 9.400 C 134.060 9.245,132.800 8.957,132.800 8.759 C 132.800 8.562,131.915 8.400,130.833 8.400 C 129.644 8.400,128.803 8.208,128.704 7.913 C 128.542 7.427,101.673 7.076,95.100 7.473 " stroke="none" fill="#2c8b14" fill-rule="evenodd"></path><path id="path2" d="M142.032 184.897 C 142.002 185.551,143.481 185.600,166.100 185.697 L 190.200 185.800 190.327 187.400 C 190.396 188.280,190.621 189.171,190.827 189.380 C 191.032 189.589,191.203 190.489,191.206 191.380 C 191.209 192.271,191.365 193.240,191.551 193.534 C 191.748 193.844,191.809 193.175,191.698 191.934 C 191.592 190.760,191.347 189.629,191.153 189.420 C 190.959 189.211,190.800 188.461,190.800 187.753 C 190.800 184.988,192.829 185.200,166.391 185.200 C 147.626 185.200,142.423 185.092,142.265 184.700 C 142.144 184.400,142.051 184.479,142.032 184.897 M142.258 188.821 C 142.370 189.799,142.615 190.960,142.803 191.400 C 143.109 192.115,143.752 195.275,144.268 198.600 C 144.371 199.260,144.607 200.160,144.793 200.600 C 144.979 201.040,145.316 202.390,145.542 203.600 L 145.953 205.800 145.738 203.400 C 145.620 202.080,145.380 200.820,145.206 200.600 C 145.032 200.380,144.793 199.480,144.673 198.600 C 144.253 195.494,143.559 192.192,143.182 191.505 C 142.972 191.123,142.797 190.223,142.794 189.505 C 142.791 188.787,142.623 187.939,142.421 187.621 C 142.182 187.243,142.125 187.659,142.258 188.821 M192.282 197.000 C 192.401 198.540,192.566 199.875,192.649 199.967 C 193.037 200.395,193.012 199.580,192.558 197.000 L 192.066 194.200 192.282 197.000 M193.232 201.100 C 193.210 201.705,193.430 201.998,193.900 201.994 C 194.332 201.990,194.431 201.875,194.160 201.694 C 193.918 201.532,193.617 201.130,193.492 200.800 C 193.339 200.399,193.253 200.499,193.232 201.100 M146.282 207.621 C 146.408 208.599,146.575 209.475,146.655 209.567 C 146.981 209.942,146.760 206.955,146.421 206.421 C 146.184 206.046,146.135 206.470,146.282 207.621 M147.489 212.900 C 147.802 214.495,148.153 216.520,148.270 217.400 C 148.386 218.280,148.644 219.171,148.841 219.380 C 149.038 219.589,149.218 220.399,149.240 221.180 C 149.262 221.961,149.433 223.050,149.621 223.600 C 149.842 224.248,149.881 223.756,149.731 222.200 C 149.605 220.880,149.364 219.620,149.196 219.400 C 149.028 219.180,148.788 218.280,148.663 217.400 C 148.013 212.816,147.457 210.000,147.204 210.000 C 147.047 210.000,147.176 211.305,147.489 212.900 M150.256 226.291 C 150.370 227.121,150.609 228.160,150.787 228.600 C 151.108 229.396,151.733 232.604,152.384 236.800 L 152.725 239.000 152.590 236.800 C 152.421 234.052,151.640 229.627,151.161 228.705 C 150.962 228.323,150.800 227.389,150.800 226.629 C 150.800 225.869,150.631 225.143,150.424 225.015 C 150.201 224.877,150.132 225.398,150.256 226.291 " stroke="none" fill="#385448" fill-rule="evenodd"></path><path id="path3" d="M142.032 184.897 C 142.002 185.551,143.481 185.600,166.100 185.697 L 190.200 185.800 190.327 187.400 C 190.396 188.280,190.621 189.171,190.827 189.380 C 191.032 189.589,191.203 190.489,191.206 191.380 C 191.209 192.271,191.365 193.240,191.551 193.534 C 191.748 193.844,191.809 193.175,191.698 191.934 C 191.592 190.760,191.347 189.629,191.153 189.420 C 190.959 189.211,190.800 188.461,190.800 187.753 C 190.800 184.988,192.829 185.200,166.391 185.200 C 147.626 185.200,142.423 185.092,142.265 184.700 C 142.144 184.400,142.051 184.479,142.032 184.897 M142.258 188.821 C 142.370 189.799,142.615 190.960,142.803 191.400 C 143.109 192.115,143.752 195.275,144.268 198.600 C 144.371 199.260,144.607 200.160,144.793 200.600 C 144.979 201.040,145.316 202.390,145.542 203.600 L 145.953 205.800 145.738 203.400 C 145.620 202.080,145.380 200.820,145.206 200.600 C 145.032 200.380,144.793 199.480,144.673 198.600 C 144.253 195.494,143.559 192.192,143.182 191.505 C 142.972 191.123,142.797 190.223,142.794 189.505 C 142.791 188.787,142.623 187.939,142.421 187.621 C 142.182 187.243,142.125 187.659,142.258 188.821 M192.282 197.000 C 192.401 198.540,192.566 199.875,192.649 199.967 C 193.037 200.395,193.012 199.580,192.558 197.000 L 192.066 194.200 192.282 197.000 M193.232 201.100 C 193.210 201.705,193.430 201.998,193.900 201.994 C 194.332 201.990,194.431 201.875,194.160 201.694 C 193.918 201.532,193.617 201.130,193.492 200.800 C 193.339 200.399,193.253 200.499,193.232 201.100 M146.282 207.621 C 146.408 208.599,146.575 209.475,146.655 209.567 C 146.981 209.942,146.760 206.955,146.421 206.421 C 146.184 206.046,146.135 206.470,146.282 207.621 M147.489 212.900 C 147.802 214.495,148.153 216.520,148.270 217.400 C 148.386 218.280,148.644 219.171,148.841 219.380 C 149.038 219.589,149.218 220.399,149.240 221.180 C 149.262 221.961,149.433 223.050,149.621 223.600 C 149.842 224.248,149.881 223.756,149.731 222.200 C 149.605 220.880,149.364 219.620,149.196 219.400 C 149.028 219.180,148.788 218.280,148.663 217.400 C 148.013 212.816,147.457 210.000,147.204 210.000 C 147.047 210.000,147.176 211.305,147.489 212.900 M150.256 226.291 C 150.370 227.121,150.609 228.160,150.787 228.600 C 151.108 229.396,151.733 232.604,152.384 236.800 L 152.725 239.000 152.590 236.800 C 152.421 234.052,151.640 229.627,151.161 228.705 C 150.962 228.323,150.800 227.389,150.800 226.629 C 150.800 225.869,150.631 225.143,150.424 225.015 C 150.201 224.877,150.132 225.398,150.256 226.291 " stroke="none" fill="#385448" fill-rule="evenodd"></path><path id="path4" d="M142.032 184.897 C 142.002 185.551,143.481 185.600,166.100 185.697 L 190.200 185.800 190.327 187.400 C 190.396 188.280,190.621 189.171,190.827 189.380 C 191.032 189.589,191.203 190.489,191.206 191.380 C 191.209 192.271,191.365 193.240,191.551 193.534 C 191.748 193.844,191.809 193.175,191.698 191.934 C 191.592 190.760,191.347 189.629,191.153 189.420 C 190.959 189.211,190.800 188.461,190.800 187.753 C 190.800 184.988,192.829 185.200,166.391 185.200 C 147.626 185.200,142.423 185.092,142.265 184.700 C 142.144 184.400,142.051 184.479,142.032 184.897 M142.258 188.821 C 142.370 189.799,142.615 190.960,142.803 191.400 C 143.109 192.115,143.752 195.275,144.268 198.600 C 144.371 199.260,144.607 200.160,144.793 200.600 C 144.979 201.040,145.316 202.390,145.542 203.600 L 145.953 205.800 145.738 203.400 C 145.620 202.080,145.380 200.820,145.206 200.600 C 145.032 200.380,144.793 199.480,144.673 198.600 C 144.253 195.494,143.559 192.192,143.182 191.505 C 142.972 191.123,142.797 190.223,142.794 189.505 C 142.791 188.787,142.623 187.939,142.421 187.621 C 142.182 187.243,142.125 187.659,142.258 188.821 M192.282 197.000 C 192.401 198.540,192.566 199.875,192.649 199.967 C 193.037 200.395,193.012 199.580,192.558 197.000 L 192.066 194.200 192.282 197.000 M193.232 201.100 C 193.210 201.705,193.430 201.998,193.900 201.994 C 194.332 201.990,194.431 201.875,194.160 201.694 C 193.918 201.532,193.617 201.130,193.492 200.800 C 193.339 200.399,193.253 200.499,193.232 201.100 M146.282 207.621 C 146.408 208.599,146.575 209.475,146.655 209.567 C 146.981 209.942,146.760 206.955,146.421 206.421 C 146.184 206.046,146.135 206.470,146.282 207.621 M147.489 212.900 C 147.802 214.495,148.153 216.520,148.270 217.400 C 148.386 218.280,148.644 219.171,148.841 219.380 C 149.038 219.589,149.218 220.399,149.240 221.180 C 149.262 221.961,149.433 223.050,149.621 223.600 C 149.842 224.248,149.881 223.756,149.731 222.200 C 149.605 220.880,149.364 219.620,149.196 219.400 C 149.028 219.180,148.788 218.280,148.663 217.400 C 148.013 212.816,147.457 210.000,147.204 210.000 C 147.047 210.000,147.176 211.305,147.489 212.900 M150.256 226.291 C 150.370 227.121,150.609 228.160,150.787 228.600 C 151.108 229.396,151.733 232.604,152.384 236.800 L 152.725 239.000 152.590 236.800 C 152.421 234.052,151.640 229.627,151.161 228.705 C 150.962 228.323,150.800 227.389,150.800 226.629 C 150.800 225.869,150.631 225.143,150.424 225.015 C 150.201 224.877,150.132 225.398,150.256 226.291 " stroke="none" fill="#385448" fill-rule="evenodd"></path></g></svg>